# xmcd CD database file
# Copyright (C) 1993-1998 Ti Kan
# 
# Track frame offsets:
#     183
#     13498
#     26920
#     41845
#     52075
#     65600
#     79873
#     92003
#     104820
#     118960
#     132830
#     145183
#     158733
#     170708
#     182588
#     195093
#     204263
#     216808
#     229455
#     243820
# 
# Disc length: 3411 seconds
# 
# Revision: 1
# Processed by: cddbd v1.4b41PL1 Copyright (c) Steve Scherf et al.
# Submitted via: DiscPlay 4.0.4
# 
DISCID=280d5114
DTITLE=Dionne Warwick - Dionne Warwick 20 Greatest Hits
DYEAR=1900
DGENRE=
TTITLE0=Walk on by
TTITLE1=I say a little prayer
TTITLE2=Valley of the dolls
TTITLE3=I ll never fall in love again
TTITLE4=Anyone who had a heart
TTITLE5=Message to Michael
TTITLE6=Do you know the way to San Jose
TTITLE7=Are you there with another girl
TTITLE8=Who can I turn to
TTITLE9=A house is not a home
TTITLE10=Don t make me over
TTITLE11=You ll never get to heaven
TTITLE12=Make it easy on yourself
TTITLE13=Reach out for me
TTITLE14=Alfie
TTITLE15=You ve lost that lovin  feeling
TTITLE16=Train and boates and planes
TTITLE17=I just don t know what to do with myself
TTITLE18=The window of the world
TTITLE19=Promises, promises
EXTD=
EXTT0=
EXTT1=
EXTT2=
EXTT3=
EXTT4=
EXTT5=
EXTT6=
EXTT7=
EXTT8=
EXTT9=
EXTT10=
EXTT11=
EXTT12=
EXTT13=
EXTT14=
EXTT15=
EXTT16=
EXTT17=
EXTT18=
EXTT19=
PLAYORDER=
